<?xml version="1.0" encoding="UTF-8"?>
<svg version="1.1" xmlns="http://www.w3.org/2000/svg" width="512" height="512">
<path d="M0 0 C0.96808594 0.77214844 1.93617188 1.54429688 2.93359375 2.33984375 C14.04848456 11.61792225 21.19713144 25.38460841 24.59204102 39.24975586 C24.85719009 40.32744736 25.12233917 41.40513885 25.39552307 42.51548767 C25.69473915 43.74532127 25.69473915 43.74532127 26 45 C26.75009338 44.99111755 27.50018677 44.98223511 28.27301025 44.9730835 C35.39183158 44.89245548 42.51049092 44.83179328 49.62964249 44.79275131 C53.28845172 44.77200353 56.94687916 44.74392568 60.60546875 44.69824219 C64.14574608 44.65431992 67.68565958 44.63076699 71.22618866 44.62049103 C73.21343502 44.60965946 75.20053794 44.5785101 77.18756104 44.54681396 C91.9275534 44.54322369 102.81088681 49.17064585 113.625 59 C121.27850726 67.06829524 125.06539113 76.02744076 126.51911926 86.8706665 C126.64111374 87.73235073 126.76310821 88.59403496 126.88879949 89.48183084 C128.45907417 100.87607713 129.62877412 112.31808388 130.8190918 123.75683594 C131.08519387 126.2824259 131.35165327 128.80797823 131.61843872 131.33349609 C132.33556363 138.13489121 133.04684181 144.93688328 133.75626731 151.7390852 C134.20099093 156.00294607 134.64713735 160.26665735 135.09354591 164.5303421 C136.33461831 176.38607493 137.57416229 188.24196488 138.80748272 200.09850693 C138.88600286 200.85334595 138.964523 201.60818496 139.04542254 202.38589789 C139.2045196 203.91539776 139.36361621 205.44489767 139.52271237 206.97439763 C139.60166504 207.73340305 139.68061771 208.49240848 139.76196289 209.27441406 C139.84101298 210.03436842 139.92006308 210.79432278 140.00150863 211.57730606 C141.28215662 223.8859983 142.57417298 236.19346812 143.87115254 248.50044915 C145.20950819 261.20156693 146.53844402 273.90364211 147.85812122 286.60671449 C148.59655084 293.71273595 149.33877068 300.81831169 150.09140587 307.92284393 C150.79973989 314.60970963 151.4950295 321.29781244 152.18204117 327.98690796 C152.43412952 330.42193095 152.69032131 332.85653375 152.95123863 335.29062653 C154.22900652 347.23364961 155.21110683 359.07269153 155.24177551 371.09136963 C155.24469091 372.0612739 155.24760631 373.03117816 155.25061005 374.03047347 C155.0604355 395.39661027 146.01123275 415.09535742 132 431 C131.28199219 431.81726563 130.56398438 432.63453125 129.82421875 433.4765625 C116.20690105 447.96518938 93.9537228 460.23038864 73.77709508 461.09528792 C71.04813904 461.13778717 68.32075253 461.14768685 65.59146118 461.14717102 C64.54406718 461.15084771 63.49667317 461.1545244 62.41753995 461.1583125 C58.90807503 461.16932483 55.39863975 461.17318907 51.88916016 461.17700195 C49.37239488 461.18326857 46.85563053 461.18991554 44.33886719 461.19691467 C36.78616497 461.21612245 29.23346797 461.226741 21.68074757 461.23564246 C18.11742922 461.24003286 14.55411233 461.24539778 10.99079514 461.25063133 C-0.86642078 461.26764102 -12.7236358 461.2821323 -24.58086205 461.28938007 C-27.65498226 461.29128974 -30.72910247 461.2932101 -33.80322266 461.29516602 C-34.94920561 461.29589163 -34.94920561 461.29589163 -36.11833973 461.2966319 C-48.47766084 461.30492144 -60.83688482 461.33024128 -73.19616358 461.36274669 C-85.9068122 461.39590153 -98.61741161 461.4138365 -111.32810366 461.41702431 C-118.45585127 461.41918185 -125.58345732 461.42781864 -132.71116257 461.45348549 C-139.42367925 461.47760241 -146.13589848 461.48096562 -152.84846497 461.47072411 C-155.30252046 461.47023064 -157.7565888 461.47649472 -160.21060562 461.49028015 C-189.49104515 461.64546389 -214.12396356 454.3992272 -235.62890625 433.4375 C-255.29860434 412.77680949 -261.68046493 388.13844805 -261.12022996 360.39586687 C-260.75892863 350.19099602 -259.56638819 340.04321753 -258.47729492 329.89599609 C-258.20526504 327.27491222 -257.93421137 324.65374365 -257.6643219 322.03244019 C-257.0118546 315.71727808 -256.34637161 309.40355695 -255.67606565 303.09026603 C-254.89343139 295.71458375 -254.12379456 288.33756123 -253.35444251 280.96048374 C-251.98056949 267.7914101 -250.59461392 254.62363662 -249.2019043 241.45654297 C-247.85459491 228.71861866 -246.51682837 215.97973781 -245.18920898 203.23974609 C-243.73722793 189.30652236 -242.28052271 175.37380919 -240.81518823 161.44198287 C-240.73756997 160.70401557 -240.65995172 159.96604828 -240.57998139 159.20571835 C-240.42415639 157.72419964 -240.26832149 156.24268198 -240.11247655 154.76116537 C-239.57341306 149.63408667 -239.03748855 144.50668551 -238.50267601 139.37916183 C-237.7820627 132.47199606 -237.05304343 125.56575802 -236.31856346 118.66005325 C-236.0511307 116.13447466 -235.78623188 113.60862619 -235.52412796 111.08248901 C-231.01661732 67.69407231 -231.01661732 67.69407231 -213 53 C-201.90991921 46.08598454 -192.58163804 44.70233867 -179.75390625 44.8046875 C-178.37385769 44.80842305 -176.99380645 44.81126746 -175.61375427 44.81326294 C-172.00192798 44.82085676 -168.39026551 44.84046806 -164.77850342 44.8626709 C-161.08478002 44.88322154 -157.39102986 44.89228427 -153.69726562 44.90234375 C-146.4647695 44.92371852 -139.23240781 44.9578023 -132 45 C-131.80428406 44.18428024 -131.60856812 43.36856049 -131.40692139 42.52812195 C-131.14469788 41.45367325 -130.88247437 40.37922455 -130.61230469 39.2722168 C-130.22591827 37.67738716 -130.22591827 37.67738716 -129.83172607 36.05033875 C-128.73782703 32.03848589 -127.17672403 28.48294464 -125.25 24.8125 C-124.90219482 24.13396973 -124.55438965 23.45543945 -124.19604492 22.75634766 C-121.34989552 17.35105551 -118.01785754 12.60473561 -114 8 C-113.22785156 7.03191406 -112.45570313 6.06382813 -111.66015625 5.06640625 C-99.4085844 -9.61065036 -79.57018326 -17.30560645 -61.0625 -19.8125 C-38.72099078 -21.29207015 -16.95580239 -14.79476875 0 0 Z M-92 33 C-95.81664868 38.55780089 -95.81664868 38.55780089 -97 45 C-67.96 45 -38.92 45 -9 45 C-10.83554365 35.82228174 -17.70397405 27.76262389 -25 22 C-48.47703961 7.91377624 -74.24710098 12.08797775 -92 33 Z M-195.9375 82.3125 C-200.35911728 88.07400131 -200.59354694 94.80958856 -201.30349731 101.80595398 C-201.41954563 102.89615036 -201.53559395 103.98634675 -201.65515888 105.10957938 C-202.04237912 108.76340049 -202.41986297 112.41816088 -202.79736328 116.07299805 C-203.0729612 118.69332812 -203.34908416 121.31359814 -203.62582397 123.93380737 C-204.29853318 130.31557186 -204.96380106 136.69809093 -205.62627997 143.08092471 C-206.165602 148.2763116 -206.70736447 153.47143848 -207.25085068 158.66639137 C-207.32828981 159.40666487 -207.40572895 160.14693837 -207.48551472 160.9096444 C-207.64286553 162.41379952 -207.80021847 163.91795442 -207.95757352 165.4221091 C-209.43318385 179.53088974 -210.89998624 193.64057587 -212.36409138 207.75055436 C-213.70003931 220.6228372 -215.04681941 233.4939591 -216.39882244 246.36456468 C-217.78951655 259.60442472 -219.17287577 272.84503258 -220.54841793 286.08647567 C-221.31975165 293.51039244 -222.09386787 300.93399222 -222.87564468 308.35681725 C-223.5419271 314.68384738 -224.20117715 321.01156452 -224.85178055 327.34022685 C-225.18310173 330.56131287 -225.51845434 333.78188238 -225.86040497 337.00185966 C-227.05184765 348.23764077 -228.2140063 359.42621176 -228.26022339 370.73469543 C-228.26430525 371.47997393 -228.26838711 372.22525243 -228.27259266 372.99311513 C-228.09506375 388.16960935 -220.49090822 401.59973649 -210.05859375 412.19921875 C-192.25144114 429.18778423 -169.36354001 429.30536701 -146.3359375 429.25878906 C-144.07090137 429.26150365 -141.80586612 429.2650672 -139.54083252 429.26940918 C-133.42519185 429.27847975 -127.30961912 429.27501101 -121.19397736 429.26865101 C-114.77303392 429.2635633 -108.35209603 429.26829013 -101.93115234 429.27142334 C-90.46222937 429.27528709 -78.99334092 429.26909846 -67.52442336 429.25890467 C-57.15233475 429.24997074 -46.78029093 429.25152327 -36.40820312 429.26074219 C-24.32662555 429.2714757 -12.24508307 429.27541307 -0.16349983 429.26951766 C6.21842396 429.26641061 12.60031699 429.26595371 18.98223877 429.27259064 C24.98401182 429.27839701 30.98570086 429.27430726 36.9874649 429.26280212 C39.18112296 429.26017308 41.37478816 429.26089035 43.5684433 429.26532745 C66.41481836 429.30725417 87.65653306 427.76287013 105.25 411.25 C118.29708147 397.34912179 122.56141866 381.36720501 122.11710691 362.88494182 C121.72602692 353.25064288 120.56930145 343.65812108 119.55322266 334.07446289 C119.28963819 331.51981949 119.02690094 328.96508855 118.76493835 326.41027832 C118.13059032 320.23906878 117.48602937 314.06896883 116.83784749 307.89919866 C116.08155719 300.69643644 115.33580862 293.49259385 114.59043507 286.28869515 C113.25960904 273.42983348 111.91960281 260.57194557 110.57421875 247.71459961 C109.27182534 235.26800314 107.9756471 222.82078072 106.68652344 210.37280273 C106.60700536 209.60497347 106.52748729 208.83714421 106.44555958 208.0460474 C106.36617351 207.27947814 106.28678745 206.51290889 106.20499575 205.72311026 C106.04511665 204.17929597 105.88523519 202.63548193 105.72535133 201.09166813 C105.6070487 199.9493428 105.6070487 199.9493428 105.48635612 198.7839402 C104.25263017 186.87359766 103.01329391 174.96383812 101.773367 163.05413978 C101.3257532 158.7540887 100.87894773 154.45395453 100.43273641 150.1537577 C99.65880992 142.69558436 98.88102434 135.23782979 98.09905434 127.78049469 C97.84060342 125.31037739 97.58339525 122.84012968 97.32754707 120.36974144 C96.97701135 116.98737749 96.62184672 113.60552966 96.26553345 110.22377014 C96.16630353 109.25614701 96.06707361 108.28852388 95.96483672 107.29157883 C95.44194917 102.3773744 94.83169357 97.47756511 94.11621666 92.58757687 C93.978266 91.62876108 93.84031535 90.6699453 93.69818437 89.68207449 C92.51097672 85.12141761 89.87981233 81.63610943 86 79 C79.62750165 77.01410927 73.7967062 76.71393706 67.1519928 76.73930359 C65.54642876 76.73356527 65.54642876 76.73356527 63.90842909 76.72771102 C60.33351493 76.71741923 56.75876252 76.72136595 53.18383789 76.7253418 C50.61601107 76.72099325 48.04818554 76.71580962 45.48036194 76.70985413 C39.23663139 76.69712828 32.99294389 76.69531076 26.74920256 76.69765439 C21.67271116 76.69943993 16.5962328 76.69768285 11.51974297 76.69342995 C10.79628075 76.69283476 10.07281853 76.69223957 9.32743321 76.69162634 C7.85756306 76.69041455 6.38769292 76.68920042 4.91782277 76.68798397 C-8.85516295 76.67711676 -22.62812416 76.67926715 -36.40111125 76.68536881 C-48.99134699 76.69053829 -61.58150537 76.67928028 -74.1717258 76.66027059 C-87.11180185 76.64088301 -100.05184131 76.63263774 -112.99193197 76.63639385 C-120.25185382 76.63830436 -127.51170982 76.63583286 -134.7716198 76.62167931 C-141.59819901 76.60850475 -148.42462094 76.611038 -155.25119972 76.62409019 C-157.75495328 76.62645709 -160.25871772 76.62371728 -162.7624588 76.61546707 C-166.1834887 76.605008 -169.60399788 76.61309415 -173.02500916 76.6257782 C-174.01276508 76.61840391 -175.000521 76.61102963 -176.01820892 76.60343188 C-183.44253539 76.66123404 -189.99028336 77.6306486 -195.9375 82.3125 Z " fill="#000000" transform="translate(309,35)"/>
<path d="M0 0 C4.98842634 2.31605509 7.32354519 5.2622433 10 10 C10.77891398 13.05405091 11.13831095 16.12256244 11.5 19.25 C13.50653602 33.68331591 18.4526577 43.93199218 29.828125 53.43359375 C41.39178581 61.77357214 54.13309738 63.41926352 68 62 C80.04460853 59.23566362 89.81850677 51.95738214 97 42 C102.40450163 32.88259141 104.23379177 24.10197279 105.2421875 13.62109375 C106.32881456 8.42880876 108.69799006 5.23690945 112.5 1.625 C117.66500009 -0.77303575 122.4002288 -0.75381535 128 0 C132.96749299 2.30633603 135.38433254 5.24275481 138 10 C138.56918422 12.99616261 138.57128826 15.89515044 138.5 18.9375 C138.48646484 19.77579346 138.47292969 20.61408691 138.45898438 21.4777832 C137.8822264 39.12087686 130.49190044 55.72959116 119 69 C118.10474609 70.18916016 118.10474609 70.18916016 117.19140625 71.40234375 C108.99135931 81.12254199 97.73987258 87.54544315 86 92 C84.88882813 92.433125 83.77765625 92.86625 82.6328125 93.3125 C62.6316336 99.84349719 40.2672456 97.24322972 21.625 88.1875 C15.53995216 85.07747734 10.15876195 81.50127268 5 77 C4.03191406 76.22785156 3.06382812 75.45570313 2.06640625 74.66015625 C-11.43587339 63.38922138 -20.61958504 43.92479281 -22.22314453 26.58740234 C-22.37940335 24.03484849 -22.46089336 21.49443457 -22.5 18.9375 C-22.51861084 18.13989258 -22.53722168 17.34228516 -22.55639648 16.52050781 C-22.49859045 11.22031206 -21.46111071 8.21822868 -18 4 C-12.72867143 -1.00776214 -6.89190982 -0.92775709 0 0 Z " fill="#000000" transform="translate(198,176)"/>
</svg>
